<mxfile host="Electron" modified="2024-03-20T14:34:40.019Z" agent="Mozilla/5.0 (Windows NT 10.0; Win64; x64) AppleWebKit/537.36 (KHTML, like Gecko) draw.io/24.0.4 Chrome/120.0.6099.109 Electron/28.1.0 Safari/537.36" etag="aVAjOStqxwY9ADD6w-r5" version="24.0.4" type="device">
  <diagram name="Pagina-1" id="ammE5UAq6F43biZOwpnf">
    <mxGraphModel dx="863" dy="512" grid="1" gridSize="10" guides="1" tooltips="1" connect="1" arrows="1" fold="1" page="1" pageScale="1" pageWidth="827" pageHeight="1169" math="0" shadow="0">
      <root>
        <mxCell id="0" />
        <mxCell id="1" parent="0" />
        <mxCell id="iGgh7ed_SA3CNLwfVrwZ-6" style="edgeStyle=orthogonalEdgeStyle;rounded=0;orthogonalLoop=1;jettySize=auto;html=1;endArrow=doubleBlock;endFill=1;" edge="1" parent="1" source="iGgh7ed_SA3CNLwfVrwZ-1">
          <mxGeometry relative="1" as="geometry">
            <mxPoint x="210" y="459.9999999999999" as="targetPoint" />
          </mxGeometry>
        </mxCell>
        <mxCell id="iGgh7ed_SA3CNLwfVrwZ-25" style="edgeStyle=orthogonalEdgeStyle;rounded=0;orthogonalLoop=1;jettySize=auto;html=1;entryX=0;entryY=0.5;entryDx=0;entryDy=0;" edge="1" parent="1" source="iGgh7ed_SA3CNLwfVrwZ-1" target="iGgh7ed_SA3CNLwfVrwZ-13">
          <mxGeometry relative="1" as="geometry">
            <Array as="points">
              <mxPoint x="90" y="530" />
            </Array>
          </mxGeometry>
        </mxCell>
        <mxCell id="iGgh7ed_SA3CNLwfVrwZ-26" style="edgeStyle=orthogonalEdgeStyle;rounded=0;orthogonalLoop=1;jettySize=auto;html=1;entryX=0;entryY=0.5;entryDx=0;entryDy=0;" edge="1" parent="1" source="iGgh7ed_SA3CNLwfVrwZ-1" target="iGgh7ed_SA3CNLwfVrwZ-16">
          <mxGeometry relative="1" as="geometry" />
        </mxCell>
        <mxCell id="iGgh7ed_SA3CNLwfVrwZ-27" style="edgeStyle=orthogonalEdgeStyle;rounded=0;orthogonalLoop=1;jettySize=auto;html=1;entryX=0;entryY=0.5;entryDx=0;entryDy=0;" edge="1" parent="1" source="iGgh7ed_SA3CNLwfVrwZ-1" target="iGgh7ed_SA3CNLwfVrwZ-23">
          <mxGeometry relative="1" as="geometry" />
        </mxCell>
        <mxCell id="iGgh7ed_SA3CNLwfVrwZ-1" value="utente" style="rounded=0;whiteSpace=wrap;html=1;" vertex="1" parent="1">
          <mxGeometry x="30" y="430" width="120" height="60" as="geometry" />
        </mxCell>
        <mxCell id="iGgh7ed_SA3CNLwfVrwZ-11" style="edgeStyle=orthogonalEdgeStyle;rounded=0;orthogonalLoop=1;jettySize=auto;html=1;entryX=1;entryY=0.5;entryDx=0;entryDy=0;endArrow=doubleBlock;endFill=1;" edge="1" parent="1" source="iGgh7ed_SA3CNLwfVrwZ-2" target="iGgh7ed_SA3CNLwfVrwZ-5">
          <mxGeometry relative="1" as="geometry" />
        </mxCell>
        <mxCell id="iGgh7ed_SA3CNLwfVrwZ-32" style="edgeStyle=orthogonalEdgeStyle;rounded=0;orthogonalLoop=1;jettySize=auto;html=1;entryX=1;entryY=0.5;entryDx=0;entryDy=0;" edge="1" parent="1" source="iGgh7ed_SA3CNLwfVrwZ-2" target="iGgh7ed_SA3CNLwfVrwZ-19">
          <mxGeometry relative="1" as="geometry" />
        </mxCell>
        <mxCell id="iGgh7ed_SA3CNLwfVrwZ-33" style="edgeStyle=orthogonalEdgeStyle;rounded=0;orthogonalLoop=1;jettySize=auto;html=1;entryX=1;entryY=0.5;entryDx=0;entryDy=0;" edge="1" parent="1" source="iGgh7ed_SA3CNLwfVrwZ-2" target="iGgh7ed_SA3CNLwfVrwZ-21">
          <mxGeometry relative="1" as="geometry" />
        </mxCell>
        <mxCell id="iGgh7ed_SA3CNLwfVrwZ-34" style="edgeStyle=orthogonalEdgeStyle;rounded=0;orthogonalLoop=1;jettySize=auto;html=1;entryX=1;entryY=0.5;entryDx=0;entryDy=0;" edge="1" parent="1" source="iGgh7ed_SA3CNLwfVrwZ-2" target="iGgh7ed_SA3CNLwfVrwZ-29">
          <mxGeometry relative="1" as="geometry" />
        </mxCell>
        <mxCell id="iGgh7ed_SA3CNLwfVrwZ-2" value="libro" style="rounded=0;whiteSpace=wrap;html=1;" vertex="1" parent="1">
          <mxGeometry x="707" y="430" width="120" height="60" as="geometry" />
        </mxCell>
        <mxCell id="iGgh7ed_SA3CNLwfVrwZ-9" style="edgeStyle=orthogonalEdgeStyle;rounded=0;orthogonalLoop=1;jettySize=auto;html=1;exitX=0;exitY=0.5;exitDx=0;exitDy=0;entryX=1;entryY=0.5;entryDx=0;entryDy=0;" edge="1" parent="1" source="iGgh7ed_SA3CNLwfVrwZ-3" target="iGgh7ed_SA3CNLwfVrwZ-4">
          <mxGeometry relative="1" as="geometry" />
        </mxCell>
        <mxCell id="iGgh7ed_SA3CNLwfVrwZ-10" style="edgeStyle=orthogonalEdgeStyle;rounded=0;orthogonalLoop=1;jettySize=auto;html=1;entryX=0;entryY=0.5;entryDx=0;entryDy=0;" edge="1" parent="1" source="iGgh7ed_SA3CNLwfVrwZ-3" target="iGgh7ed_SA3CNLwfVrwZ-5">
          <mxGeometry relative="1" as="geometry" />
        </mxCell>
        <mxCell id="iGgh7ed_SA3CNLwfVrwZ-41" style="edgeStyle=orthogonalEdgeStyle;rounded=0;orthogonalLoop=1;jettySize=auto;html=1;entryX=0;entryY=0.5;entryDx=0;entryDy=0;" edge="1" parent="1" source="iGgh7ed_SA3CNLwfVrwZ-3" target="iGgh7ed_SA3CNLwfVrwZ-35">
          <mxGeometry relative="1" as="geometry" />
        </mxCell>
        <mxCell id="iGgh7ed_SA3CNLwfVrwZ-42" style="edgeStyle=orthogonalEdgeStyle;rounded=0;orthogonalLoop=1;jettySize=auto;html=1;entryX=0;entryY=0.5;entryDx=0;entryDy=0;" edge="1" parent="1" source="iGgh7ed_SA3CNLwfVrwZ-3" target="iGgh7ed_SA3CNLwfVrwZ-37">
          <mxGeometry relative="1" as="geometry" />
        </mxCell>
        <mxCell id="iGgh7ed_SA3CNLwfVrwZ-3" value="prestito" style="rounded=0;whiteSpace=wrap;html=1;" vertex="1" parent="1">
          <mxGeometry x="360" y="430" width="120" height="60" as="geometry" />
        </mxCell>
        <mxCell id="iGgh7ed_SA3CNLwfVrwZ-4" value="usufruire" style="rhombus;whiteSpace=wrap;html=1;" vertex="1" parent="1">
          <mxGeometry x="210" y="420" width="80" height="80" as="geometry" />
        </mxCell>
        <mxCell id="iGgh7ed_SA3CNLwfVrwZ-5" value="allocare" style="rhombus;whiteSpace=wrap;html=1;" vertex="1" parent="1">
          <mxGeometry x="570" y="420" width="80" height="80" as="geometry" />
        </mxCell>
        <mxCell id="iGgh7ed_SA3CNLwfVrwZ-8" value="" style="endArrow=none;html=1;rounded=0;" edge="1" parent="1">
          <mxGeometry width="50" height="50" relative="1" as="geometry">
            <mxPoint x="160" y="480" as="sourcePoint" />
            <mxPoint x="160" y="430" as="targetPoint" />
          </mxGeometry>
        </mxCell>
        <mxCell id="iGgh7ed_SA3CNLwfVrwZ-12" value="" style="endArrow=none;html=1;rounded=0;" edge="1" parent="1">
          <mxGeometry width="50" height="50" relative="1" as="geometry">
            <mxPoint x="690" y="490" as="sourcePoint" />
            <mxPoint x="690" y="430" as="targetPoint" />
          </mxGeometry>
        </mxCell>
        <mxCell id="iGgh7ed_SA3CNLwfVrwZ-13" value="" style="ellipse;whiteSpace=wrap;html=1;aspect=fixed;" vertex="1" parent="1">
          <mxGeometry x="110" y="520" width="20" height="20" as="geometry" />
        </mxCell>
        <mxCell id="iGgh7ed_SA3CNLwfVrwZ-14" value="Nomi" style="text;html=1;align=center;verticalAlign=middle;resizable=0;points=[];autosize=1;strokeColor=none;fillColor=none;" vertex="1" parent="1">
          <mxGeometry x="130" y="515" width="50" height="30" as="geometry" />
        </mxCell>
        <mxCell id="iGgh7ed_SA3CNLwfVrwZ-16" value="" style="ellipse;whiteSpace=wrap;html=1;aspect=fixed;" vertex="1" parent="1">
          <mxGeometry x="110" y="550" width="20" height="20" as="geometry" />
        </mxCell>
        <mxCell id="iGgh7ed_SA3CNLwfVrwZ-17" value="Cognome" style="text;html=1;align=center;verticalAlign=middle;resizable=0;points=[];autosize=1;strokeColor=none;fillColor=none;" vertex="1" parent="1">
          <mxGeometry x="120" y="545" width="80" height="30" as="geometry" />
        </mxCell>
        <mxCell id="iGgh7ed_SA3CNLwfVrwZ-19" value="" style="ellipse;whiteSpace=wrap;html=1;aspect=fixed;" vertex="1" parent="1">
          <mxGeometry x="707" y="515" width="20" height="20" as="geometry" />
        </mxCell>
        <mxCell id="iGgh7ed_SA3CNLwfVrwZ-20" value="Titolo" style="text;html=1;align=center;verticalAlign=middle;resizable=0;points=[];autosize=1;strokeColor=none;fillColor=none;" vertex="1" parent="1">
          <mxGeometry x="657" y="510" width="50" height="30" as="geometry" />
        </mxCell>
        <mxCell id="iGgh7ed_SA3CNLwfVrwZ-21" value="" style="ellipse;whiteSpace=wrap;html=1;aspect=fixed;" vertex="1" parent="1">
          <mxGeometry x="707" y="545" width="20" height="20" as="geometry" />
        </mxCell>
        <mxCell id="iGgh7ed_SA3CNLwfVrwZ-22" value="Anno pub" style="text;html=1;align=center;verticalAlign=middle;resizable=0;points=[];autosize=1;strokeColor=none;fillColor=none;" vertex="1" parent="1">
          <mxGeometry x="632" y="540" width="70" height="30" as="geometry" />
        </mxCell>
        <mxCell id="iGgh7ed_SA3CNLwfVrwZ-23" value="" style="ellipse;whiteSpace=wrap;html=1;aspect=fixed;" vertex="1" parent="1">
          <mxGeometry x="110" y="589.5" width="20" height="20" as="geometry" />
        </mxCell>
        <mxCell id="iGgh7ed_SA3CNLwfVrwZ-24" value="Email" style="text;html=1;align=center;verticalAlign=middle;resizable=0;points=[];autosize=1;strokeColor=none;fillColor=none;" vertex="1" parent="1">
          <mxGeometry x="135" y="584.5" width="50" height="30" as="geometry" />
        </mxCell>
        <mxCell id="iGgh7ed_SA3CNLwfVrwZ-28" value="" style="endArrow=none;html=1;rounded=0;" edge="1" parent="1">
          <mxGeometry width="50" height="50" relative="1" as="geometry">
            <mxPoint x="100" y="620" as="sourcePoint" />
            <mxPoint x="100" y="580" as="targetPoint" />
          </mxGeometry>
        </mxCell>
        <mxCell id="iGgh7ed_SA3CNLwfVrwZ-29" value="" style="ellipse;whiteSpace=wrap;html=1;aspect=fixed;" vertex="1" parent="1">
          <mxGeometry x="707" y="580" width="20" height="20" as="geometry" />
        </mxCell>
        <mxCell id="iGgh7ed_SA3CNLwfVrwZ-30" value="Disponibilita" style="text;html=1;align=center;verticalAlign=middle;resizable=0;points=[];autosize=1;strokeColor=none;fillColor=none;" vertex="1" parent="1">
          <mxGeometry x="622" y="575" width="90" height="30" as="geometry" />
        </mxCell>
        <mxCell id="iGgh7ed_SA3CNLwfVrwZ-35" value="" style="ellipse;whiteSpace=wrap;html=1;aspect=fixed;" vertex="1" parent="1">
          <mxGeometry x="450" y="520" width="20" height="20" as="geometry" />
        </mxCell>
        <mxCell id="iGgh7ed_SA3CNLwfVrwZ-36" value="Data prestito" style="text;html=1;align=center;verticalAlign=middle;resizable=0;points=[];autosize=1;strokeColor=none;fillColor=none;" vertex="1" parent="1">
          <mxGeometry x="470" y="515" width="90" height="30" as="geometry" />
        </mxCell>
        <mxCell id="iGgh7ed_SA3CNLwfVrwZ-37" value="" style="ellipse;whiteSpace=wrap;html=1;aspect=fixed;" vertex="1" parent="1">
          <mxGeometry x="450" y="550" width="20" height="20" as="geometry" />
        </mxCell>
        <mxCell id="iGgh7ed_SA3CNLwfVrwZ-38" value="Data ritorno" style="text;html=1;align=center;verticalAlign=middle;resizable=0;points=[];autosize=1;strokeColor=none;fillColor=none;" vertex="1" parent="1">
          <mxGeometry x="470" y="545" width="90" height="30" as="geometry" />
        </mxCell>
      </root>
    </mxGraphModel>
  </diagram>
</mxfile>
